# xmcd
#
# Track frame offsets:
#	150
#	9906
#	28493
#	49400
#	74913
#	102591
#	124516
#	142662
#	158992
#	177156
#
# Disc length: 2706 seconds
#
# Revision: 3
# Processed by: cddbd v1.5.2PL0 Copyright (c) Steve Scherf et al.
# Submitted via: EZCDAudioConverter 7.0.6.1
#
DISCID=8c0a900a
DTITLE=Shintaro Sakamoto - Let's Dance Raw 2/2
DYEAR=2014
DGENRE=
TTITLE0=Future Lullaby [Instrumental]
TTITLE1=Birth Of The Super Cult [Instrumental]
TTITLE2=Extremely Bad Man [Instrumental]
TTITLE3=Let's Dance Raw [Instrumental]
TTITLE4=Like An Obligation [Instrumental]
TTITLE5=Gently Disappear [Instrumental]
TTITLE6=You Can Be A Robot, Too [Instrumental]
TTITLE7=Why Can't I Stop? [Instrumental]
TTITLE8=Never Liked You, But Still Nostalgic [Instrumental]
TTITLE9=This World Should Be More Wonderful [Instrumental]
EXTD=
EXTT0=
EXTT1=
EXTT2=
EXTT3=
EXTT4=
EXTT5=
EXTT6=
EXTT7=
EXTT8=
EXTT9=
PLAYORDER=
